<?xml version="1.0" encoding="iso-8859-1"?>
<!-- Generator: Adobe Illustrator 19.0.0, SVG Export Plug-In . SVG Version: 6.00 Build 0)  -->
<svg version="1.1" id="Layer_1" xmlns="http://www.w3.org/2000/svg" xmlns:xlink="http://www.w3.org/1999/xlink" x="0px" y="0px"
	 viewBox="0 0 512 512" style="enable-background:new 0 0 512 512;" xml:space="preserve">
<g>
	<g>
		<path d="M501.333,84.501H160c-5.888,0-10.667,4.779-10.667,10.667v106.667c0,5.888,4.779,10.667,10.667,10.667
			s10.667-4.779,10.667-10.667v-96h320v192h-224c-5.888,0-10.667,4.779-10.667,10.667s4.779,10.667,10.667,10.667h234.667
			c5.888,0,10.667-4.779,10.667-10.667V95.168C512,89.28,507.221,84.501,501.333,84.501z"/>
	</g>
</g>
<g>
	<g>
		<path d="M383.552,348.587c-1.28-4.587-5.461-7.744-10.24-7.744l-64.832,0.021l-47.957,3.776
			c-19.584,2.923-36.544-12.501-36.544-31.68c0-7.403,2.325-14.485,6.677-20.459l33.557-46.101
			c9.344-14.037,7.509-32.896-4.437-44.843c-13.397-13.419-36.821-13.419-50.24,0l-54.08,54.08
			c-28.565,1.6-53.867,18.133-66.752,43.947c-0.32,0.661-0.576,1.344-0.768,2.048l-23.573,89.472
			c-0.789,2.923-0.277,6.037,1.387,8.555c1.643,2.517,4.309,4.245,7.296,4.693l137.344,21.056
			c4.864,1.387,11.755,2.091,20.523,2.091c16.555,0,50.453-3.051,63.531-14.485l84.48-52.437
			C382.976,358.059,384.875,353.173,383.552,348.587z M282.368,395.456c-0.683,0.427-1.344,0.939-1.92,1.515
			c-4.16,4.181-27.2,9.216-49.536,9.216c-9.472,0-13.611-0.981-15.957-1.557L88,385.088l20.267-76.907
			c10.112-19.328,29.824-31.317,51.733-31.317c2.837,0,5.547-1.131,7.552-3.093l57.088-57.088c5.376-5.355,14.699-5.355,20.075,0
			c4.779,4.757,5.525,12.309,2.027,17.557l-33.323,45.739c-7.019,9.643-10.752,21.077-10.752,33.045
			c0,29.397,23.893,53.333,53.248,53.333c2.517,0,5.056-0.171,6.955-0.469l46.464-3.669h26.581L282.368,395.456z"/>
	</g>
</g>
<g>
	<g>
		<path d="M103.339,279.787c-18.688-17.685-79.787-23.275-91.84-24.213c-3.093-0.171-5.888,0.789-8.085,2.795
			C1.259,260.395,0,263.232,0,266.197v149.333c0,5.888,4.779,10.667,10.667,10.667c29.163,0,67.669-21.824,69.291-22.72
			c2.325-1.323,4.075-3.477,4.885-6.016c0.683-2.176,16.939-53.568,21.781-108.992C106.923,285.227,105.685,282.027,103.339,279.787
			z M65.728,386.923c-9.813,5.184-28.373,13.739-44.395,16.811V277.931c23.061,2.603,51.371,7.893,63.488,14.613
			C80.427,334.763,69.419,374.464,65.728,386.923z"/>
	</g>
</g>
<g>
	<g>
		<path d="M403.563,185.664c-4.331-19.456-15.979-36.096-32.811-46.784c-34.709-22.08-80.96-11.84-103.083,22.891
			c-3.179,4.949-1.685,11.563,3.264,14.72c4.907,3.157,11.541,1.728,14.72-3.264c15.765-24.811,48.832-32.149,73.621-16.363
			c12.032,7.637,20.352,19.499,23.445,33.408c3.115,13.931,0.576,28.203-7.061,40.213c-15.765,24.832-48.811,32.171-73.621,16.363
			c-4.885-3.136-11.52-1.728-14.72,3.264c-3.179,4.949-1.685,11.563,3.264,14.72c12.395,7.872,26.261,11.648,39.979,11.648
			c24.683,0,48.875-12.224,63.104-34.517C404.373,225.131,407.893,205.12,403.563,185.664z"/>
	</g>
</g>
<g>
	<g>
		<path d="M458.667,148.48c-5.867,0-10.667-4.779-10.667-10.667s-4.779-10.667-10.667-10.667H416
			c-5.888,0-10.667,4.779-10.667,10.667S410.112,148.48,416,148.48h12.501c3.2,9.088,10.411,16.299,19.499,19.52v67.648
			c-9.088,3.221-16.299,10.432-19.499,19.52H416c-5.888,0-10.667,4.779-10.667,10.667s4.779,10.667,10.667,10.667h21.333
			c5.888,0,10.667-4.779,10.667-10.688c0-5.888,4.8-10.667,10.667-10.667c5.888,0,10.667-4.779,10.667-10.667v-85.333
			C469.333,153.259,464.555,148.48,458.667,148.48z"/>
	</g>
</g>
<g>
	<g>
		<path d="M245.333,127.168H224c-5.888,0-10.667,4.779-10.667,10.667s-4.8,10.667-10.667,10.667
			c-5.888,0-10.667,4.779-10.667,10.667s4.779,10.667,10.667,10.667c13.909,0,25.771-8.917,30.165-21.333h12.501
			c5.888,0,10.667-4.779,10.667-10.667S251.221,127.168,245.333,127.168z"/>
	</g>
</g>
<g>
</g>
<g>
</g>
<g>
</g>
<g>
</g>
<g>
</g>
<g>
</g>
<g>
</g>
<g>
</g>
<g>
</g>
<g>
</g>
<g>
</g>
<g>
</g>
<g>
</g>
<g>
</g>
<g>
</g>
</svg>
