<?xml version="1.0" encoding="iso-8859-1"?><!DOCTYPE svg PUBLIC "-//W3C//DTD SVG 1.1//EN" "http://www.w3.org/Graphics/SVG/1.1/DTD/svg11.dtd"><svg viewBox="0 0 612 612" xmlns="http://www.w3.org/2000/svg" xmlns:xlink="http://www.w3.org/1999/xlink"><style>:root>svg{display:none}:root>svg:target{display:block}</style><svg viewBox="0 0 451.846 451.847" id="arrow-right" xmlns="http://www.w3.org/2000/svg"><path fill="#26a53e" d="M345.441 248.292L151.154 442.573c-12.359 12.365-32.397 12.365-44.75 0-12.354-12.354-12.354-32.391 0-44.744L278.318 225.92 106.409 54.017c-12.354-12.359-12.354-32.394 0-44.748 12.354-12.359 32.391-12.359 44.75 0l194.287 194.284c6.177 6.18 9.262 14.271 9.262 22.366 0 8.099-3.091 16.196-9.267 22.373z"/></svg><svg viewBox="0 0 256 256" id="arrow-right2" xmlns="http://www.w3.org/2000/svg"><path fill="#ffb100" d="M79.093 0L48.907 30.187 146.72 128l-97.813 97.813L79.093 256l128-128z"/></svg><svg viewBox="0 0 512 512" id="benefits-01" xmlns="http://www.w3.org/2000/svg"><path d="M482 286h-90c-33.09 0-60 26.908-60 60 0 33.09 26.908 60 60 60h90c16.538 0 30-13.461 30-30v-60c0-16.538-13.461-30-30-30zm-90 75c-8.283 0-15-6.716-15-15 0-8.283 6.714-15 15-15 8.283 0 15 6.714 15 15 0 8.283-6.716 15-15 15zM226 150c41.351 0 75-33.646 75-75 0-41.351-33.646-75-75-75-41.351 0-75 33.646-75 75 0 41.351 33.646 75 75 75zm0-90c8.283 0 15 6.714 15 15 0 8.283-6.716 15-15 15-8.283 0-15-6.716-15-15 0-8.283 6.714-15 15-15zM437 134.939c0-8.25-6.688-14.939-14.939-14.939H320.468c-5.254 10.976-12.265 21.256-21.216 30H437v-15.061z"/><path d="M302 346c0-49.628 40.37-90 90-90h75v-61c0-8.401-6.599-15-15-15H15c-5.131 0-10.109-1.019-15-2.763V467c0 24.898 20.099 45 45 45h407c8.399 0 15-6.599 15-15v-61h-75c-49.628 0-90-40.37-90-90zM15 120c-8.401 0-15 6.599-15 15 0 8.399 6.599 15 15 15h137.749c-8.951-8.744-15.963-19.024-21.216-30z"/></svg><svg viewBox="0 0 512 512" id="benefits-02" xmlns="http://www.w3.org/2000/svg"><path d="M512 169v-59c0-24.813-20.187-45-45-45h-6v55c0 8.284-6.716 15-15 15s-15-6.716-15-15V40c0-8.284-6.716-15-15-15s-15 6.716-15 15v25H301v55c0 8.284-6.716 15-15 15s-15-6.716-15-15V40c0-8.284-6.716-15-15-15s-15 6.716-15 15v25H141v55c0 8.284-6.716 15-15 15s-15-6.716-15-15V40c0-8.284-6.716-15-15-15s-15 6.716-15 15v25H45C20.187 65 0 85.187 0 110v59zM0 199v243c0 24.813 20.187 45 45 45h422c24.813 0 45-20.187 45-45V199H0zm144 208h-32c-8.284 0-15-6.716-15-15s6.716-15 15-15h32c8.284 0 15 6.716 15 15s-6.716 15-15 15zm0-64h-32c-8.284 0-15-6.716-15-15s6.716-15 15-15h32c8.284 0 15 6.716 15 15s-6.716 15-15 15zm0-64h-32c-8.284 0-15-6.716-15-15s6.716-15 15-15h32c8.284 0 15 6.716 15 15s-6.716 15-15 15zm128 128h-32c-8.284 0-15-6.716-15-15s6.716-15 15-15h32c8.284 0 15 6.716 15 15s-6.716 15-15 15zm0-64h-32c-8.284 0-15-6.716-15-15s6.716-15 15-15h32c8.284 0 15 6.716 15 15s-6.716 15-15 15zm0-64h-32c-8.284 0-15-6.716-15-15s6.716-15 15-15h32c8.284 0 15 6.716 15 15s-6.716 15-15 15zm128 128h-32c-8.284 0-15-6.716-15-15s6.716-15 15-15h32c8.284 0 15 6.716 15 15s-6.716 15-15 15zm0-64h-32c-8.284 0-15-6.716-15-15s6.716-15 15-15h32c8.284 0 15 6.716 15 15s-6.716 15-15 15zm0-64h-32c-8.284 0-15-6.716-15-15s6.716-15 15-15h32c8.284 0 15 6.716 15 15s-6.716 15-15 15z"/></svg><svg viewBox="0 0 612 612" id="benefits-03" xmlns="http://www.w3.org/2000/svg"><path d="M504.9 395.756c-28.684 0-52.02 23.342-52.02 52.02 0 28.684 23.336 52.02 52.02 52.02 28.678 0 52.02-23.336 52.02-52.02 0-28.678-23.342-52.02-52.02-52.02zm0 67.32c-8.439 0-15.3-6.861-15.3-15.3s6.861-15.3 15.3-15.3 15.3 6.861 15.3 15.3-6.861 15.3-15.3 15.3z"/><path d="M499.918 179.518H410.04c-6.763 0-12.24 5.484-12.24 12.24v238.68c0 6.756 5.477 12.24 12.24 12.24h12.981c6.059 0 11.426-4.364 12.209-10.373 4.804-36.806 34.162-59.633 69.676-59.633s64.872 22.828 69.676 59.633c.783 6.01 6.144 10.373 12.209 10.373h12.968c6.756 0 12.24-5.484 12.24-12.24v-119.34c0-2.876-1.01-5.655-2.852-7.852l-99.842-119.34a12.246 12.246 0 00-9.387-4.388zm-77.638 97.92v-61.2c0-6.756 5.477-12.24 12.24-12.24h53.917c3.629 0 7.075 1.616 9.4 4.406l50.998 61.2c6.64 7.974.973 20.074-9.406 20.074H434.52c-6.763 0-12.24-5.477-12.24-12.24zM12.24 442.684h31.341c6.059 0 11.426-4.364 12.209-10.373 4.804-36.806 34.162-59.633 69.676-59.633s64.872 22.828 69.676 59.633c.783 6.01 6.144 10.373 12.209 10.373H361.08c6.757 0 12.24-5.484 12.24-12.24v-306c0-6.756-5.484-12.24-12.24-12.24H12.24c-6.763 0-12.24 5.484-12.24 12.24v306c0 6.757 5.477 12.24 12.24 12.24z"/><path d="M125.46 395.756c-28.684 0-52.02 23.342-52.02 52.02 0 28.684 23.336 52.02 52.02 52.02 28.678 0 52.02-23.336 52.02-52.02 0-28.678-23.342-52.02-52.02-52.02zm0 67.32c-8.439 0-15.3-6.861-15.3-15.3s6.861-15.3 15.3-15.3 15.3 6.861 15.3 15.3-6.861 15.3-15.3 15.3z"/></svg><svg viewBox="0 0 512.003 512.003" id="benefits-04" xmlns="http://www.w3.org/2000/svg"><path d="M477.958 262.633a15.004 15.004 0 010-13.263l19.096-39.065c10.632-21.751 2.208-47.676-19.178-59.023l-38.41-20.38a15.005 15.005 0 01-7.796-10.729l-7.512-42.829c-4.183-23.846-26.241-39.87-50.208-36.479l-43.053 6.09a15.004 15.004 0 01-12.613-4.099l-31.251-30.232c-17.401-16.834-44.661-16.835-62.061 0L193.72 42.859a15.01 15.01 0 01-12.613 4.099l-43.053-6.09c-23.975-3.393-46.025 12.633-50.208 36.479l-7.512 42.827a15.008 15.008 0 01-7.795 10.73l-38.41 20.38c-21.386 11.346-29.81 37.273-19.178 59.024l19.095 39.064a15.004 15.004 0 010 13.263L14.95 301.699c-10.632 21.751-2.208 47.676 19.178 59.023l38.41 20.38a15.005 15.005 0 017.796 10.729l7.512 42.829c3.808 21.708 22.422 36.932 43.815 36.93 2.107 0 4.245-.148 6.394-.452l43.053-6.09a15 15 0 0112.613 4.099l31.251 30.232c8.702 8.418 19.864 12.626 31.03 12.625 11.163-.001 22.332-4.209 31.03-12.625l31.252-30.232c3.372-3.261 7.968-4.751 12.613-4.099l43.053 6.09c23.978 3.392 46.025-12.633 50.208-36.479l7.513-42.827a15.008 15.008 0 017.795-10.73l38.41-20.38c21.386-11.346 29.81-37.273 19.178-59.024l-19.096-39.065zM196.941 123.116c29.852 0 54.139 24.287 54.139 54.139s-24.287 54.139-54.139 54.139-54.139-24.287-54.139-54.139 24.287-54.139 54.139-54.139zm-27.944 240.77c-2.883 2.883-6.662 4.325-10.44 4.325s-7.558-1.441-10.44-4.325c-5.766-5.766-5.766-15.115 0-20.881l194.889-194.889c5.765-5.766 15.115-5.766 20.881 0s5.766 15.115 0 20.881l-194.89 194.889zm146.064 25.002c-29.852 0-54.139-24.287-54.139-54.139s24.287-54.139 54.139-54.139c29.852 0 54.139 24.287 54.139 54.139s-24.287 54.139-54.139 54.139z"/><path d="M315.061 310.141c-13.569 0-24.609 11.039-24.609 24.608s11.039 24.608 24.609 24.608c13.569 0 24.608-11.039 24.608-24.608s-11.039-24.608-24.608-24.608zM196.941 152.646c-13.569 0-24.608 11.039-24.608 24.608s11.039 24.609 24.608 24.609 24.609-11.039 24.609-24.609c-.001-13.568-11.04-24.608-24.609-24.608z"/></svg><svg viewBox="0 0 342.357 342.357" id="check" xmlns="http://www.w3.org/2000/svg"><path fill="#26a53e" d="M290.04 33.286L118.861 204.427l-66.541-66.52L0 190.226l118.862 118.845L342.357 85.606z"/></svg><svg viewBox="0 0 465.882 465.882" id="email" xmlns="http://www.w3.org/2000/svg"><path fill="#26a53e" d="M232.941 0C104.499 0 0 104.499 0 232.941s104.499 232.941 232.941 232.941c40.961 0 81.239-10.777 116.499-31.179l-29.146-50.416c-26.416 15.284-56.629 23.36-87.353 23.36-96.338 0-174.706-78.368-174.706-174.706S136.603 58.235 232.941 58.235s174.706 78.368 174.706 174.706v25.364c0 19.052-12.241 32.871-29.118 32.871-16.052 0-29.118-13.066-29.118-29.118v-116.47H309.16c-20.484-17.895-46.948-29.118-76.219-29.118-64.221 0-116.471 52.25-116.471 116.471s52.25 116.471 116.471 116.471c30.582 0 58.232-12.094 79.036-31.442 16.036 19.057 39.754 31.442 66.552 31.442 48.98 0 87.353-40.022 87.353-91.107v-25.364C465.882 104.499 361.383 0 232.941 0zm0 291.176c-32.118 0-58.235-26.118-58.235-58.235 0-32.118 26.118-58.235 58.235-58.235 32.118 0 58.235 26.118 58.235 58.235 0 32.118-26.117 58.235-58.235 58.235z"/></svg><svg viewBox="0 0 465.882 465.882" id="email2" xmlns="http://www.w3.org/2000/svg"><path fill="#fff" d="M232.941 0C104.499 0 0 104.499 0 232.941s104.499 232.941 232.941 232.941c40.961 0 81.239-10.777 116.499-31.179l-29.146-50.416c-26.416 15.284-56.629 23.36-87.353 23.36-96.338 0-174.706-78.368-174.706-174.706S136.603 58.235 232.941 58.235s174.706 78.368 174.706 174.706v25.364c0 19.052-12.241 32.871-29.118 32.871-16.052 0-29.118-13.066-29.118-29.118v-116.47H309.16c-20.484-17.895-46.948-29.118-76.219-29.118-64.221 0-116.471 52.25-116.471 116.471s52.25 116.471 116.471 116.471c30.582 0 58.232-12.094 79.036-31.442 16.036 19.057 39.754 31.442 66.552 31.442 48.98 0 87.353-40.022 87.353-91.107v-25.364C465.882 104.499 361.383 0 232.941 0zm0 291.176c-32.118 0-58.235-26.118-58.235-58.235 0-32.118 26.118-58.235 58.235-58.235 32.118 0 58.235 26.118 58.235 58.235 0 32.118-26.117 58.235-58.235 58.235z"/></svg><svg viewBox="0 0 511 511.9" id="instagram" xmlns="http://www.w3.org/2000/svg"><path d="M510.95 150.5c-1.2-27.2-5.598-45.898-11.9-62.102-6.5-17.199-16.5-32.597-29.6-45.398-12.802-13-28.302-23.102-45.302-29.5-16.296-6.3-34.898-10.7-62.097-11.898C334.648.3 325.949 0 256.449 0s-78.199.3-105.5 1.5c-27.199 1.2-45.898 5.602-62.097 11.898-17.204 6.5-32.602 16.5-45.403 29.602-13 12.8-23.097 28.3-29.5 45.3-6.3 16.302-10.699 34.9-11.898 62.098C.75 177.801.449 186.5.449 256s.301 78.2 1.5 105.5c1.2 27.2 5.602 45.898 11.903 62.102 6.5 17.199 16.597 32.597 29.597 45.398 12.801 13 28.301 23.102 45.301 29.5 16.3 6.3 34.898 10.7 62.102 11.898 27.296 1.204 36 1.5 105.5 1.5s78.199-.296 105.5-1.5c27.199-1.199 45.898-5.597 62.097-11.898a130.934 130.934 0 0074.903-74.898c6.296-16.301 10.699-34.903 11.898-62.102 1.2-27.3 1.5-36 1.5-105.5s-.102-78.2-1.3-105.5zm-46.098 209c-1.102 25-5.301 38.5-8.801 47.5-8.602 22.3-26.301 40-48.602 48.602-9 3.5-22.597 7.699-47.5 8.796-27 1.204-35.097 1.5-103.398 1.5s-76.5-.296-103.403-1.5c-25-1.097-38.5-5.296-47.5-8.796C94.551 451.5 84.45 445 76.25 436.5c-8.5-8.3-15-18.3-19.102-29.398-3.5-9-7.699-22.602-8.796-47.5-1.204-27-1.5-35.102-1.5-103.403s.296-76.5 1.5-103.398c1.097-25 5.296-38.5 8.796-47.5C61.25 94.199 67.75 84.1 76.352 75.898c8.296-8.5 18.296-15 29.398-19.097 9-3.5 22.602-7.7 47.5-8.801 27-1.2 35.102-1.5 103.398-1.5 68.403 0 76.5.3 103.403 1.5 25 1.102 38.5 5.3 47.5 8.8 11.097 4.098 21.199 10.598 29.398 19.098 8.5 8.301 15 18.301 19.102 29.403 3.5 9 7.699 22.597 8.8 47.5 1.2 27 1.5 35.097 1.5 103.398s-.3 76.301-1.5 103.301zm0 0"/><path d="M256.45 124.5c-72.598 0-131.5 58.898-131.5 131.5s58.902 131.5 131.5 131.5c72.6 0 131.5-58.898 131.5-131.5s-58.9-131.5-131.5-131.5zm0 216.8c-47.098 0-85.302-38.198-85.302-85.3s38.204-85.3 85.301-85.3c47.102 0 85.301 38.198 85.301 85.3s-38.2 85.3-85.3 85.3zm0 0M423.852 119.3c0 16.954-13.747 30.7-30.704 30.7-16.953 0-30.699-13.746-30.699-30.7 0-16.956 13.746-30.698 30.7-30.698 16.956 0 30.703 13.742 30.703 30.699zm0 0"/></svg><svg viewBox="0 0 477.867 477.867" id="list" xmlns="http://www.w3.org/2000/svg"><path fill="#fff" d="M426.667 0H51.2C22.923 0 0 22.923 0 51.2v375.467c0 28.277 22.923 51.2 51.2 51.2h375.467c28.277 0 51.2-22.923 51.2-51.2V51.2c0-28.277-22.923-51.2-51.2-51.2zM153.6 375.467h-51.2c-9.426 0-17.067-7.641-17.067-17.067s7.641-17.067 17.067-17.067h51.2c9.426 0 17.067 7.641 17.067 17.067s-7.641 17.067-17.067 17.067zm0-119.467h-51.2c-9.426 0-17.067-7.641-17.067-17.067s7.641-17.067 17.067-17.067h51.2c9.426 0 17.067 7.641 17.067 17.067S163.026 256 153.6 256zm0-119.467h-51.2c-9.426 0-17.067-7.641-17.067-17.067S92.974 102.4 102.4 102.4h51.2c9.426 0 17.067 7.641 17.067 17.067s-7.641 17.066-17.067 17.066zm221.867 238.934h-153.6c-9.426 0-17.067-7.641-17.067-17.067s7.641-17.067 17.067-17.067h153.6c9.426 0 17.067 7.641 17.067 17.067s-7.642 17.067-17.067 17.067zm0-119.467h-153.6c-9.426 0-17.067-7.641-17.067-17.067s7.641-17.067 17.067-17.067h153.6c9.426 0 17.067 7.641 17.067 17.067S384.892 256 375.467 256zm0-119.467h-153.6c-9.426 0-17.067-7.641-17.067-17.067s7.641-17.067 17.067-17.067h153.6c9.426 0 17.067 7.641 17.067 17.067s-7.642 17.067-17.067 17.067z"/></svg><svg viewBox="0 0 24 24" id="location" xmlns="http://www.w3.org/2000/svg"><path fill="#26a53e" d="M12 0C7.038 0 3 4.066 3 9.065c0 7.103 8.154 14.437 8.501 14.745a.749.749 0 00.998.001C12.846 23.502 21 16.168 21 9.065 21 4.066 16.962 0 12 0zm0 14c-2.757 0-5-2.243-5-5s2.243-5 5-5 5 2.243 5 5-2.243 5-5 5z"/></svg><svg viewBox="0 0 24 24" id="location-white" xmlns="http://www.w3.org/2000/svg"><path fill="#FFF" d="M12 0C7.038 0 3 4.066 3 9.065c0 7.103 8.154 14.437 8.501 14.745a.749.749 0 00.998.001C12.846 23.502 21 16.168 21 9.065 21 4.066 16.962 0 12 0zm0 14c-2.757 0-5-2.243-5-5s2.243-5 5-5 5 2.243 5 5-2.243 5-5 5z"/></svg><svg viewBox="0 0 513.64 513.64" id="phone" xmlns="http://www.w3.org/2000/svg"><path fill="#fff" d="M499.66 376.96l-71.68-71.68c-25.6-25.6-69.12-15.359-79.36 17.92-7.68 23.041-33.28 35.841-56.32 30.72-51.2-12.8-120.32-79.36-133.12-133.12-7.68-23.041 7.68-48.641 30.72-56.32 33.28-10.24 43.52-53.76 17.92-79.36l-71.68-71.68c-20.48-17.92-51.2-17.92-69.12 0L18.38 62.08c-48.64 51.2 5.12 186.88 125.44 307.2s256 176.641 307.2 125.44l48.64-48.64c17.921-20.48 17.921-51.2 0-69.12z"/></svg><svg viewBox="0 0 447.907 447.907" id="scheme-01" xmlns="http://www.w3.org/2000/svg"><path d="M432.703 206.904l-30.5-13.2-25.9-50.4c-7-13.8-21.2-22.4-36.7-22.3h-44.6v-12.6c0-22.8-18.2-41.4-41-41.4h-213.2c-22.8 0-40.8 18.7-40.8 41.4v193c-.2 13.9 10.9 25.3 24.8 25.5h5.7c0 1-.1 1.4-.1 2-.1 28.6 23 51.9 51.6 52 28.6.1 51.9-23 52-51.6v-.5c0-.7 0-1-.1-2h172.3v2c-.1 28.6 23 51.9 51.6 52 28.6.1 51.9-23 52-51.6v-.5-2h12.9c13.9 0 25.2-11.3 25.2-25.2v-71.4c.2-9.8-5.8-19.1-15.2-23.2zm-350.4 154.1c-17.6 0-31.8-14.2-31.8-31.8s14.2-31.8 31.8-31.8 31.8 14.2 31.8 31.8c0 17.5-14.3 31.8-31.8 31.8zm192.7-53.9h-145.8c-8.4-18.3-26.8-30-46.9-29.9-20.2-.1-38.5 11.5-46.9 29.9h-10.2c-3.1 0-5.2-2.4-5.2-5.5v-51.5h255v57zm0-198.6v121.6h-255v-121.6c0-11.7 9.1-21.4 20.8-21.4h213.2c11.7.1 21.1 9.7 21 21.3v.1zm20 32.6h44.6c7.9-.1 15.3 4.2 19 11.3l20 38.7h-83.6v-50zm63.1 219.9c-17.6 0-31.8-14.2-31.8-31.8s14.2-31.8 31.8-31.8 31.8 14.2 31.8 31.8c0 17.5-14.2 31.8-31.8 31.8zm69.9-59.4c0 3.1-2.1 5.5-5.2 5.5h-17.8c-12.1-25.9-42.9-37.1-68.8-25-11 5.1-19.9 14-25 25h-16.2v-96h98l31.8 14c2 1 3.3 3.2 3.2 5.4v71.1z"/></svg><svg viewBox="0 0 512 512" id="scheme-02" xmlns="http://www.w3.org/2000/svg"><path d="M414.007 148.75c5.522 0 10-4.477 10-10V30c0-16.542-13.458-30-30-30h-364c-16.542 0-30 13.458-30 30v452c0 16.542 13.458 30 30 30h364c16.542 0 30-13.458 30-30v-73.672c0-5.523-4.478-10-10-10s-10 4.477-10 10V482c0 5.514-4.486 10-10 10h-364c-5.514 0-10-4.486-10-10V30c0-5.514 4.486-10 10-10h364c5.514 0 10 4.486 10 10v108.75c0 5.523 4.478 10 10 10z"/><path d="M212.007 54c-50.729 0-92 41.271-92 92 0 26.317 11.11 50.085 28.882 66.869.333.356.687.693 1.074 1 16.371 14.979 38.158 24.13 62.043 24.13 23.885 0 45.672-9.152 62.043-24.13a9.993 9.993 0 001.074-1c17.774-16.784 28.884-40.552 28.884-66.869 0-50.729-41.271-92-92-92zm0 164c-16.329 0-31.399-5.472-43.491-14.668 8.789-15.585 25.19-25.332 43.491-25.332s34.702 9.747 43.491 25.332C243.405 212.528 228.336 218 212.007 218zm-16-76v-6.5c0-8.822 7.178-16 16-16s16 7.178 16 16v6.5c0 8.822-7.178 16-16 16s-16-7.178-16-16zm73.94 46.683a69.375 69.375 0 00-29.463-24.697c4.71-6.087 7.523-13.712 7.523-21.986v-6.5c0-19.851-16.149-36-36-36s-36 16.149-36 36v6.5c0 8.274 2.813 15.899 7.523 21.986a69.375 69.375 0 00-29.463 24.697c-8.829-11.953-14.06-26.716-14.06-42.683 0-39.701 32.299-72 72-72s72 32.299 72 72c0 15.967-5.231 30.73-14.06 42.683zM266.007 438h-54c-5.522 0-10 4.477-10 10s4.478 10 10 10h54c5.522 0 10-4.477 10-10s-4.478-10-10-10zM266.007 382h-142c-5.522 0-10 4.477-10 10s4.478 10 10 10h142c5.522 0 10-4.477 10-10s-4.478-10-10-10zM266.007 326h-142c-5.522 0-10 4.477-10 10s4.478 10 10 10h142c5.522 0 10-4.477 10-10s-4.478-10-10-10zM88.366 272.93a10.077 10.077 0 00-7.079-2.93c-2.631 0-5.211 1.07-7.07 2.93-1.86 1.86-2.93 4.44-2.93 7.07s1.069 5.21 2.93 7.07a10.092 10.092 0 007.07 2.93c2.64 0 5.21-1.07 7.079-2.93 1.86-1.86 2.931-4.44 2.931-7.07s-1.07-5.21-2.931-7.07zM88.366 328.93a10.095 10.095 0 00-7.079-2.93c-2.631 0-5.2 1.07-7.07 2.93-1.86 1.86-2.93 4.44-2.93 7.07s1.069 5.21 2.93 7.07a10.092 10.092 0 007.07 2.93c2.64 0 5.21-1.07 7.079-2.93 1.86-1.86 2.931-4.44 2.931-7.07s-1.07-5.21-2.931-7.07zM88.366 384.93a10.095 10.095 0 00-7.079-2.93c-2.631 0-5.2 1.07-7.07 2.93-1.86 1.86-2.93 4.44-2.93 7.07s1.069 5.21 2.93 7.07a10.072 10.072 0 007.07 2.93c2.64 0 5.22-1.07 7.079-2.93 1.86-1.86 2.931-4.44 2.931-7.07s-1.07-5.21-2.931-7.07zM266.007 270h-142c-5.522 0-10 4.477-10 10s4.478 10 10 10h142c5.522 0 10-4.477 10-10s-4.478-10-10-10zM491.002 130.32c-9.715-5.609-21.033-7.099-31.871-4.196-10.836 2.904-19.894 9.854-25.502 19.569L307.787 363.656a10.016 10.016 0 00-1.278 3.891l-8.858 79.344a10.004 10.004 0 009.937 11.11 9.99 9.99 0 005.931-1.948l64.284-47.344a9.983 9.983 0 002.73-3.052l125.841-217.963c11.58-20.056 4.684-45.794-15.372-57.374zM320.063 426.394l4.626-41.432 28.942 16.71-33.568 24.722zm48.15-39.398l-38.105-22 100.985-174.91 38.105 22-100.985 174.91zm120.841-209.303l-9.857 17.073-38.105-22 9.857-17.073a21.855 21.855 0 0113.358-10.25 21.85 21.85 0 0116.694 2.198 21.855 21.855 0 0110.25 13.358 21.856 21.856 0 01-2.197 16.694z"/></svg><svg viewBox="0 0 512 512" id="scheme-03" xmlns="http://www.w3.org/2000/svg"><path d="M404.267 315.41c-10.048-20.949-45.995-50.027-80.725-78.123-19.371-15.659-37.675-30.464-49.344-42.133-2.923-2.944-7.296-3.883-11.157-2.496-7.189 2.603-11.627 4.608-15.125 6.165-5.333 2.389-7.125 3.2-14.315 3.925a10.663 10.663 0 00-7.808 4.672c-15.083 22.549-30.699 20.629-41.131 17.131-3.328-1.109-3.925-2.539-4.245-3.904-2.24-9.365 9.003-31.168 23.573-45.739 34.667-34.688 52.544-43.371 90.304-26.496 42.837 19.157 85.76 34.155 86.187 34.304a10.654 10.654 0 0013.589-6.571c1.92-5.568-1.003-11.648-6.571-13.589-.427-.149-42.496-14.848-84.48-33.643-48.917-21.867-75.755-7.467-114.091 30.891-14.592 14.592-34.411 44.117-29.291 65.771 2.197 9.216 8.683 16.043 18.325 19.221 24.171 7.979 46.229.341 62.656-21.461 6.784-1.045 10.475-2.581 16.021-5.077a209.95 209.95 0 017.467-3.2c12.203 11.456 28.672 24.789 46.016 38.805 31.36 25.365 66.923 54.123 74.923 70.763 3.947 8.213-.299 13.568-3.179 16.021-4.224 3.627-10.005 4.779-13.141 2.581-3.456-2.368-7.957-2.517-11.52-.384a10.66 10.66 0 00-5.141 10.304c.725 6.784-5.483 10.667-8.171 12.011-6.827 3.456-13.952 2.859-16.619.384-2.987-2.773-7.275-3.584-11.072-2.176-3.797 1.429-6.443 4.928-6.827 8.981-.64 6.997-5.824 13.717-12.587 16.341-3.264 1.237-8 1.984-12.245-1.899a10.791 10.791 0 00-9.749-2.475 10.65 10.65 0 00-7.488 6.72c-.405 1.067-1.323 3.627-11.307 3.627-7.104 0-19.883-4.8-26.133-8.939-7.488-4.928-54.443-39.957-94.997-73.92-5.696-4.8-15.552-15.083-24.256-24.171-7.723-8.064-14.784-15.381-18.411-18.453-4.544-3.84-11.264-3.264-15.04 1.259-3.797 4.501-3.243 11.243 1.259 15.04 3.307 2.795 9.707 9.557 16.768 16.917 9.515 9.941 19.349 20.224 25.963 25.771 39.723 33.259 87.467 69.163 96.981 75.413 7.851 5.163 24.768 12.416 37.867 12.416 10.517 0 18.603-2.411 24.213-7.125 7.509 2.923 16.043 2.944 24.256-.256 9.707-3.755 17.685-11.328 22.208-20.501 8.405 1.792 18.027.533 26.773-3.861 8.555-4.309 14.741-10.901 17.813-18.603 8.491.448 17.237-2.56 24.469-8.768 12.247-10.474 15.617-26.772 8.535-41.471z"/><path d="M213.333 138.663h-96c-5.888 0-10.667 4.779-10.667 10.667s4.779 10.667 10.667 10.667h96c5.888 0 10.667-4.779 10.667-10.667s-4.779-10.667-10.667-10.667zM435.52 292.711c-3.307-4.885-9.92-6.229-14.805-2.901l-31.189 20.949c-4.885 3.285-6.187 9.92-2.901 14.805a10.717 10.717 0 008.875 4.715c2.027 0 4.096-.576 5.931-1.813l31.189-20.949c4.884-3.286 6.185-9.92 2.9-14.806zM369.301 343.613c-7.637-6.016-41.792-40.981-62.912-62.997-4.075-4.267-10.837-4.416-15.083-.32-4.267 4.075-4.395 10.837-.32 15.083 5.483 5.717 53.845 56.128 65.088 65.003a10.623 10.623 0 006.592 2.283c3.136 0 6.272-1.408 8.405-4.075 3.649-4.609 2.86-11.329-1.77-14.977zM326.677 365.01c-12.779-10.219-44.885-44.331-52.139-52.224-4.011-4.352-10.731-4.608-15.083-.64-4.331 3.989-4.629 10.752-.64 15.083.384.405 38.699 41.771 54.528 54.443a10.72 10.72 0 006.656 2.325c3.115 0 6.229-1.387 8.341-3.989 3.671-4.609 2.924-11.329-1.663-14.998zM284.224 386.493c-15.211-12.821-46.336-45.952-52.416-52.459-4.032-4.309-10.795-4.544-15.083-.512-4.309 4.032-4.523 10.773-.512 15.083 8.747 9.365 38.528 40.939 54.251 54.208a10.638 10.638 0 006.869 2.517c3.029 0 6.059-1.301 8.171-3.797 3.797-4.523 3.221-11.243-1.28-15.04z"/><path d="M124.672 120.253C106.389 102.93 33.28 97.319 11.307 96.018c-3.029-.149-5.824.853-7.957 2.88A10.662 10.662 0 000 106.663v192c0 5.888 4.779 10.667 10.667 10.667h64c4.608 0 8.704-2.965 10.133-7.36 1.557-4.779 38.315-117.589 43.157-173.056.278-3.243-.917-6.443-3.285-8.661zM66.88 287.997H21.333V118.098c34.283 2.709 71.275 8.597 84.715 15.125-5.653 46.72-31.232 129.728-39.168 154.774zM501.333 117.33c-83.755 0-130.219 21.44-132.16 22.336-2.773 1.301-4.843 3.712-5.696 6.635s-.427 6.059 1.173 8.661c13.184 21.227 54.464 139.115 62.4 167.872a10.665 10.665 0 0010.283 7.829h64c5.888 0 10.667-4.779 10.667-10.667v-192a10.657 10.657 0 00-10.667-10.666zm-10.666 192h-45.355c-10.112-32.939-39.979-118.827-56.64-154.325 16.277-5.525 51.243-15.019 101.995-16.213V309.33z"/></svg><svg viewBox="0 0 512 512" id="scheme-04" xmlns="http://www.w3.org/2000/svg"><path d="M501.333 84.501H160c-5.888 0-10.667 4.779-10.667 10.667v106.667c0 5.888 4.779 10.667 10.667 10.667s10.667-4.779 10.667-10.667v-96h320v192h-224c-5.888 0-10.667 4.779-10.667 10.667s4.779 10.667 10.667 10.667h234.667c5.888 0 10.667-4.779 10.667-10.667V95.168c-.001-5.888-4.78-10.667-10.668-10.667z"/><path d="M383.552 348.587c-1.28-4.587-5.461-7.744-10.24-7.744l-64.832.021-47.957 3.776c-19.584 2.923-36.544-12.501-36.544-31.68 0-7.403 2.325-14.485 6.677-20.459l33.557-46.101c9.344-14.037 7.509-32.896-4.437-44.843-13.397-13.419-36.821-13.419-50.24 0l-54.08 54.08c-28.565 1.6-53.867 18.133-66.752 43.947-.32.661-.576 1.344-.768 2.048l-23.573 89.472a10.537 10.537 0 001.387 8.555 10.63 10.63 0 007.296 4.693l137.344 21.056c4.864 1.387 11.755 2.091 20.523 2.091 16.555 0 50.453-3.051 63.531-14.485l84.48-52.437c4.052-2.518 5.951-7.404 4.628-11.99zm-101.184 46.869c-.683.427-1.344.939-1.92 1.515-4.16 4.181-27.2 9.216-49.536 9.216-9.472 0-13.611-.981-15.957-1.557L88 385.088l20.267-76.907c10.112-19.328 29.824-31.317 51.733-31.317 2.837 0 5.547-1.131 7.552-3.093l57.088-57.088c5.376-5.355 14.699-5.355 20.075 0 4.779 4.757 5.525 12.309 2.027 17.557l-33.323 45.739c-7.019 9.643-10.752 21.077-10.752 33.045 0 29.397 23.893 53.333 53.248 53.333 2.517 0 5.056-.171 6.955-.469l46.464-3.669h26.581l-53.547 33.237z"/><path d="M103.339 279.787c-18.688-17.685-79.787-23.275-91.84-24.213-3.093-.171-5.888.789-8.085 2.795C1.259 260.395 0 263.232 0 266.197V415.53c0 5.888 4.779 10.667 10.667 10.667 29.163 0 67.669-21.824 69.291-22.72a10.67 10.67 0 004.885-6.016c.683-2.176 16.939-53.568 21.781-108.992.299-3.242-.939-6.442-3.285-8.682zM65.728 386.923c-9.813 5.184-28.373 13.739-44.395 16.811V277.931c23.061 2.603 51.371 7.893 63.488 14.613-4.394 42.219-15.402 81.92-19.093 94.379zM403.563 185.664c-4.331-19.456-15.979-36.096-32.811-46.784-34.709-22.08-80.96-11.84-103.083 22.891-3.179 4.949-1.685 11.563 3.264 14.72 4.907 3.157 11.541 1.728 14.72-3.264 15.765-24.811 48.832-32.149 73.621-16.363 12.032 7.637 20.352 19.499 23.445 33.408 3.115 13.931.576 28.203-7.061 40.213-15.765 24.832-48.811 32.171-73.621 16.363-4.885-3.136-11.52-1.728-14.72 3.264-3.179 4.949-1.685 11.563 3.264 14.72 12.395 7.872 26.261 11.648 39.979 11.648 24.683 0 48.875-12.224 63.104-34.517 10.709-16.832 14.229-36.843 9.899-56.299z"/><path d="M458.667 148.48c-5.867 0-10.667-4.779-10.667-10.667s-4.779-10.667-10.667-10.667H416c-5.888 0-10.667 4.779-10.667 10.667S410.112 148.48 416 148.48h12.501c3.2 9.088 10.411 16.299 19.499 19.52v67.648c-9.088 3.221-16.299 10.432-19.499 19.52H416c-5.888 0-10.667 4.779-10.667 10.667s4.779 10.667 10.667 10.667h21.333c5.888 0 10.667-4.779 10.667-10.688 0-5.888 4.8-10.667 10.667-10.667 5.888 0 10.667-4.779 10.667-10.667v-85.333c-.001-5.888-4.779-10.667-10.667-10.667zM245.333 127.168H224c-5.888 0-10.667 4.779-10.667 10.667s-4.8 10.667-10.667 10.667c-5.888 0-10.667 4.779-10.667 10.667s4.779 10.667 10.667 10.667c13.909 0 25.771-8.917 30.165-21.333h12.501c5.888 0 10.667-4.779 10.667-10.667s-4.778-10.668-10.666-10.668z"/></svg><svg viewBox="0 0 512 512" id="scheme-05" xmlns="http://www.w3.org/2000/svg"><path d="M497.36 69.995c-7.532-7.545-19.753-7.558-27.285-.032L238.582 300.845l-83.522-90.713c-7.217-7.834-19.419-8.342-27.266-1.126-7.841 7.217-8.343 19.425-1.126 27.266l97.126 105.481a19.273 19.273 0 0013.784 6.22c.141.006.277.006.412.006a19.317 19.317 0 0013.623-5.628L497.322 97.286c7.551-7.525 7.564-19.746.038-27.291z"/><path d="M492.703 236.703c-10.658 0-19.296 8.638-19.296 19.297 0 119.883-97.524 217.407-217.407 217.407-119.876 0-217.407-97.524-217.407-217.407 0-119.876 97.531-217.407 217.407-217.407 10.658 0 19.297-8.638 19.297-19.296C275.297 8.638 266.658 0 256 0 114.84 0 0 114.84 0 256c0 141.154 114.84 256 256 256 141.154 0 256-114.846 256-256 0-10.658-8.638-19.297-19.297-19.297z"/></svg><svg viewBox="0 0 512.005 512.005" id="search" xmlns="http://www.w3.org/2000/svg"><path d="M505.749 475.587l-145.6-145.6c28.203-34.837 45.184-79.104 45.184-127.317C405.333 90.926 314.41.003 202.666.003S0 90.925 0 202.669s90.923 202.667 202.667 202.667c48.213 0 92.48-16.981 127.317-45.184l145.6 145.6c4.16 4.16 9.621 6.251 15.083 6.251s10.923-2.091 15.083-6.251c8.341-8.341 8.341-21.824-.001-30.165zM202.667 362.669c-88.235 0-160-71.765-160-160s71.765-160 160-160 160 71.765 160 160-71.766 160-160 160z" fill="#FFF"/></svg><svg viewBox="0 0 512 512" id="top" xmlns="http://www.w3.org/2000/svg"><path fill="#26a53e" d="M256 0C114.837 0 0 114.837 0 256s114.837 256 256 256 256-114.837 256-256S397.163 0 256 0zm100.416 228.416a21.275 21.275 0 01-15.083 6.251 21.277 21.277 0 01-15.083-6.251l-48.917-48.917V384c0 11.776-9.536 21.333-21.333 21.333s-21.333-9.557-21.333-21.333V179.499l-48.917 48.917c-8.341 8.341-21.824 8.341-30.165 0s-8.341-21.824 0-30.165l85.312-85.312c1.963-1.984 4.331-3.541 6.955-4.629a21.354 21.354 0 0116.299 0c2.624 1.088 4.992 2.645 6.955 4.629l85.312 85.312c8.339 8.341 8.339 21.824-.002 30.165z"/></svg><svg viewBox="0 0 511.962 511.962" id="vk" xmlns="http://www.w3.org/2000/svg"><path d="M507.399 370.471c-1.376-2.304-9.888-20.8-50.848-58.816-42.88-39.808-37.12-33.344 14.528-102.176 31.456-41.92 44.032-67.52 40.096-78.464-3.744-10.432-26.88-7.68-26.88-7.68l-76.928.448s-5.696-.768-9.952 1.76c-4.128 2.496-6.784 8.256-6.784 8.256s-12.192 32.448-28.448 60.032c-34.272 58.208-48 61.28-53.6 57.664-13.024-8.416-9.76-33.856-9.76-51.904 0-56.416 8.544-79.936-16.672-86.016-8.384-2.016-14.528-3.36-35.936-3.584-27.456-.288-50.72.096-63.872 6.528-8.768 4.288-15.52 13.856-11.392 14.4 5.088.672 16.608 3.104 22.72 11.424 7.904 10.72 7.616 34.848 7.616 34.848s4.544 66.4-10.592 74.656c-10.4 5.664-24.64-5.888-55.2-58.72-15.648-27.04-27.488-56.96-27.488-56.96s-2.272-5.568-6.336-8.544c-4.928-3.616-11.84-4.768-11.84-4.768l-73.152.448s-10.976.32-15.008 5.088c-3.584 4.256-.288 13.024-.288 13.024s57.28 133.984 122.112 201.536c59.488 61.92 127.008 57.856 127.008 57.856h30.592s9.248-1.024 13.952-6.112c4.352-4.672 4.192-13.44 4.192-13.44s-.608-41.056 18.464-47.104c18.784-5.952 42.912 39.68 68.48 57.248 19.328 13.28 34.016 10.368 34.016 10.368l68.384-.96s35.776-2.208 18.816-30.336z"/></svg></svg>